{
  "accessors": [
    {
      "bufferView": 2,
      "componentType": 5126,
      "count": 5984,
      "max": [
        0.19372358918190002,
        0.1937236189842224,
        0.43945905566215515
      ],
      "min": [
        -0.19372358918190002,
        -0.19372358918190002,
        -0.1828286051750183
      ],
      "type": "VEC3"
    },
    {
      "bufferView": 2,
      "byteOffset": 71808,
      "componentType": 5126,
      "count": 5984,
      "max": [
        1.0,
        1.0,
        1.0
      ],
      "min": [
        -1.0,
        -1.0,
        -1.0
      ],
      "type": "VEC3"
    },
    {
      "bufferView": 3,
      "componentType": 5126,
      "count": 5984,
      "max": [
        0.9999270439147949,
        1.0,
        1.0,
        1.0
      ],
      "min": [
        -1.0,
        -1.0,
        -1.0,
        1.0
      ],
      "type": "VEC4"
    },
    {
      "bufferView": 1,
      "componentType": 5126,
      "count": 5984,
      "max": [
        0.6998071670532227,
        0.9998257160186768
      ],
      "min": [
        0.00017434726760257035,
        0.00017434981418773532
      ],
      "type": "VEC2"
    },
    {
      "bufferView": 1,
      "byteOffset": 47872,
      "componentType": 5126,
      "count": 5984,
      "max": [
        0.6998071670532227,
        0.9998257160186768
      ],
      "min": [
        0.00017434726760257035,
        0.00017434981418773532
      ],
      "type": "VEC2"
    },
    {
      "bufferView": 1,
      "byteOffset": 95744,
      "componentType": 5126,
      "count": 5984,
      "max": [
        0.6998071670532227,
        0.9998257160186768
      ],
      "min": [
        0.00017434726760257035,
        0.00017434981418773532
      ],
      "type": "VEC2"
    },
    {
      "bufferView": 0,
      "componentType": 5125,
      "count": 9762,
      "type": "SCALAR"
    },
    {
      "bufferView": 2,
      "byteOffset": 143616,
      "componentType": 5126,
      "count": 4512,
      "max": [
        1.0403496026992798,
        1.0403498411178589,
        1.049247145652771
      ],
      "min": [
        -1.0403492450714111,
        -1.0403494834899902,
        -0.7835429310798645
      ],
      "type": "VEC3"
    },
    {
      "bufferView": 2,
      "byteOffset": 197760,
      "componentType": 5126,
      "count": 4512,
      "max": [
        0.9940094351768494,
        0.9940094351768494,
        0.9994583129882813
      ],
      "min": [
        -0.9940094351768494,
        -0.9940093755722046,
        -0.7786363959312439
      ],
      "type": "VEC3"
    },
    {
      "bufferView": 3,
      "byteOffset": 95744,
      "componentType": 5126,
      "count": 4512,
      "max": [
        0.9914783239364624,
        0.7798923850059509,
        0.9974045753479004,
        1.0
      ],
      "min": [
        -0.8675368428230286,
        -0.9976111650466919,
        -0.9974045157432556,
        1.0
      ],
      "type": "VEC4"
    },
    {
      "bufferView": 1,
      "byteOffset": 143616,
      "componentType": 5126,
      "count": 4512,
      "max": [
        0.9999001026153564,
        0.9999001026153564
      ],
      "min": [
        9.996183507610112e-05,
        9.996183507610112e-05
      ],
      "type": "VEC2"
    },
    {
      "bufferView": 1,
      "byteOffset": 179712,
      "componentType": 5126,
      "count": 4512,
      "max": [
        0.9999001026153564,
        0.9999001026153564
      ],
      "min": [
        9.996183507610112e-05,
        9.996183507610112e-05
      ],
      "type": "VEC2"
    },
    {
      "bufferView": 1,
      "byteOffset": 215808,
      "componentType": 5126,
      "count": 4512,
      "max": [
        0.9999001026153564,
        0.9999001026153564
      ],
      "min": [
        9.996183507610112e-05,
        9.996183507610112e-05
      ],
      "type": "VEC2"
    },
    {
      "bufferView": 0,
      "byteOffset": 39048,
      "componentType": 5125,
      "count": 4512,
      "type": "SCALAR"
    }
  ],
  "asset": {
    "extras": {
      "author": "milaha (https://sketchfab.com/elenakozlova479)",
      "license": "CC-BY-4.0 (http://creativecommons.org/licenses/by/4.0/)",
      "source": "https://sketchfab.com/3d-models/perfume-bottle-2318f02b3bfb4587bc6e50ea768b4e77",
      "title": "perfume bottle"
    },
    "generator": "Sketchfab-15.66.0",
    "version": "2.0"
  },
  "bufferViews": [
    {
      "buffer": 0,
      "byteLength": 57096,
      "name": "floatBufferViews",
      "target": 34963
    },
    {
      "buffer": 0,
      "byteLength": 251904,
      "byteOffset": 57096,
      "byteStride": 8,
      "name": "floatBufferViews",
      "target": 34962
    },
    {
      "buffer": 0,
      "byteLength": 251904,
      "byteOffset": 309000,
      "byteStride": 12,
      "name": "floatBufferViews",
      "target": 34962
    },
    {
      "buffer": 0,
      "byteLength": 167936,
      "byteOffset": 560904,
      "byteStride": 16,
      "name": "floatBufferViews",
      "target": 34962
    }
  ],
  "buffers": [
    {
      "byteLength": 728840,
      "uri": "scene.bin"
    }
  ],
  "extensionsUsed": [
    "KHR_materials_clearcoat",
    "KHR_materials_specular",
    "KHR_materials_transmission"
  ],
  "images": [
    {
      "uri": "textures/Material.001_baseColor.png"
    },
    {
      "uri": "textures/Material.001_metallicRoughness.png"
    },
    {
      "uri": "textures/Material.001_normal.png"
    },
    {
      "uri": "textures/Material.003_baseColor.png"
    },
    {
      "uri": "textures/Material.003_metallicRoughness.png"
    },
    {
      "uri": "textures/Material.003_normal.png"
    }
  ],
  "materials": [
    {
      "doubleSided": true,
      "extensions": {
        "KHR_materials_clearcoat": {
          "clearcoatFactor": 1.0,
          "clearcoatRoughnessFactor": 0.04
        },
        "KHR_materials_specular": {
          "specularColorFactor": [
            1.0,
            1.0,
            1.0
          ],
          "specularFactor": 0.1630481159561629
        }
      },
      "name": "Material.001",
      "normalTexture": {
        "index": 2
      },
      "pbrMetallicRoughness": {
        "baseColorTexture": {
          "index": 0
        },
        "metallicRoughnessTexture": {
          "index": 1
        }
      }
    },
    {
      "alphaMode": "BLEND",
      "doubleSided": true,
      "extensions": {
        "KHR_materials_clearcoat": {
          "clearcoatFactor": 0.9310504565347246,
          "clearcoatRoughnessFactor": 0.0
        },
        "KHR_materials_transmission": {
          "transmissionFactor": 0.6662846972486012
        }
      },
      "name": "Material.003",
      "normalTexture": {
        "index": 5
      },
      "pbrMetallicRoughness": {
        "baseColorFactor": [
          0.028392518867862575,
          0.6912592433859023,
          0.05046304087996289,
          0.3337153027513988
        ],
        "baseColorTexture": {
          "index": 3
        },
        "metallicRoughnessTexture": {
          "index": 4
        }
      }
    }
  ],
  "meshes": [
    {
      "name": "Cylinder_Material.001_0",
      "primitives": [
        {
          "attributes": {
            "NORMAL": 1,
            "POSITION": 0,
            "TANGENT": 2,
            "TEXCOORD_0": 3,
            "TEXCOORD_1": 4,
            "TEXCOORD_2": 5
          },
          "indices": 6,
          "material": 0,
          "mode": 4
        }
      ]
    },
    {
      "name": "Sphere_Material.003_0",
      "primitives": [
        {
          "attributes": {
            "NORMAL": 8,
            "POSITION": 7,
            "TANGENT": 9,
            "TEXCOORD_0": 10,
            "TEXCOORD_1": 11,
            "TEXCOORD_2": 12
          },
          "indices": 13,
          "material": 1,
          "mode": 4
        }
      ]
    }
  ],
  "nodes": [
    {
      "children": [
        1
      ],
      "matrix": [
        1.0,
        0.0,
        0.0,
        0.0,
        0.0,
        2.220446049250313e-16,
        -1.0,
        0.0,
        0.0,
        1.0,
        2.220446049250313e-16,
        0.0,
        0.0,
        0.0,
        0.0,
        1.0
      ],
      "name": "Sketchfab_model"
    },
    {
      "children": [
        2
      ],
      "matrix": [
        0.009999999776482582,
        0.0,
        0.0,
        0.0,
        0.0,
        0.0,
        0.009999999776482582,
        0.0,
        0.0,
        -0.009999999776482582,
        0.0,
        0.0,
        0.0,
        0.0,
        0.0,
        1.0
      ],
      "name": "425bbadc6d4a427aa9788e43a2eaaca6.fbx"
    },
    {
      "children": [
        3,
        5
      ],
      "name": "RootNode"
    },
    {
      "children": [
        4
      ],
      "matrix": [
        100.0,
        0.0,
        0.0,
        0.0,
        0.0,
        -1.629206793918314e-05,
        -99.99999999999868,
        0.0,
        0.0,
        99.99999999999868,
        -1.629206793918314e-05,
        0.0,
        0.0,
        0.0,
        0.0,
        1.0
      ],
      "name": "Cylinder"
    },
    {
      "mesh": 0,
      "name": "Cylinder_Material.001_0"
    },
    {
      "children": [
        6
      ],
      "matrix": [
        9.655343055725098,
        0.0,
        0.0,
        0.0,
        0.0,
        -1.5730550503999345e-06,
        -9.65534305572497,
        0.0,
        0.0,
        9.65534305572497,
        -1.5730550503999345e-06,
        0.0,
        0.0,
        44.75954055786133,
        0.0,
        1.0
      ],
      "name": "Sphere"
    },
    {
      "mesh": 1,
      "name": "Sphere_Material.003_0"
    }
  ],
  "samplers": [
    {
      "magFilter": 9729,
      "minFilter": 9987,
      "wrapS": 10497,
      "wrapT": 10497
    }
  ],
  "scene": 0,
  "scenes": [
    {
      "name": "Sketchfab_Scene",
      "nodes": [
        0
      ]
    }
  ],
  "textures": [
    {
      "sampler": 0,
      "source": 0
    },
    {
      "sampler": 0,
      "source": 1
    },
    {
      "sampler": 0,
      "source": 2
    },
    {
      "sampler": 0,
      "source": 3
    },
    {
      "sampler": 0,
      "source": 4
    },
    {
      "sampler": 0,
      "source": 5
    }
  ]
}
